<svg width="100%" height="100%" viewBox="0 0 24 24" fill="none" xmlns="http://www.w3.org/2000/svg">
    <defs>
        <mask id="prefix__a" maskUnits="userSpaceOnUse" x="0" y="0" width="24" height="24">
            <path fill="#fff" d="M0 0h24v24H0z" />
            <path
                d="M27.5 24c1.6-2.3 2.5-5 2.5-8 0-2.7-.8-5.2-2.1-7.3 0-.1-.1-.1-.1-.2C25.3 4.6 21 2 16 2 11 2 6.6 4.6 4.2 8.6c0 .1-.1.1-.1.2-1.3 2.1-2 4.6-2 7.3 0 3 .9 5.7 2.5 8l.1.1C7.1 27.7 11.3 30 16 30c4.7 0 8.8-2.3 11.4-5.8 0-.1 0-.1.1-.2zM26 22.5l-3.6.5-1.4-1.4 2-5.8 3.1-1.5 2 1.2v.7c-.1 2.2-.8 4.5-2.1 6.3zm-.1-13.2l-.8 3-3.2 1.6-4.9-3.4V6.6l3.4-1.7c2.3.9 4.2 2.4 5.5 4.4zM11.5 4.9L15 6.6v3.9L10.1 14l-3.3-1.6L6 9.3c1.4-2 3.3-3.5 5.5-4.4zM4 15.3l2-1.2 3.1 1.6 2 5.8-1.4 1.4-3.7-.4c-1.3-1.9-2-4.1-2-6.5v-.7zm8.9 12.3l-1.7-3.4 1.2-1.2h7.2l1.2 1.2-1.7 3.4c-1 .3-2 .4-3.1.4s-2.1-.2-3.1-.4z"
                transform="matrix(.375 0 0 .375 6 9.375)" fill="#000" />
        </mask>
    </defs>
    <path fill="#1F8A2E" d="M0 0h24v24H0z" />
    <g fill="rgba(255,255,255,0.87)">
        <path
            d="M22 14v-2c0-.839 0-1.585-.013-2.25H2.013C2 10.415 2 11.161 2 12v2c0 3.771 0 5.657 1.172 6.828C4.343 22 6.229 22 10 22h4c3.771 0 5.657 0 6.828-1.172C22 19.657 22 17.771 22 14z"
            mask="url(#prefix__a)" transform="matrix(.7071 0 0 .7071 3.515 3.515)" />
        <path
            d="M8.995 5.282a.53.53 0 00-1.06 0V6.4c-1.019.082-1.687.282-2.178.773-.49.49-.69 1.159-.772 2.176h14.03c-.081-1.017-.281-1.686-.772-2.176-.491-.491-1.16-.691-2.177-.773V5.282a.53.53 0 00-1.06 0v1.07c-.471-.009-.999-.009-1.592-.009h-2.828c-.593 0-1.12 0-1.591.01v-1.07z" fill="rgba(0,0,0,0.65)" />
    </g>
</svg>