<svg t="1765373788216" class="icon" viewBox="0 0 1024 1024" version="1.1" xmlns="http://www.w3.org/2000/svg" p-id="12025" width="200" height="200"><path d="M853.333333 853.333333a42.666667 42.666667 0 0 1-42.666666 42.666667H213.333333a42.666667 42.666667 0 0 1-42.666666-42.666667v-384H42.666667l440.618666-400.597333a42.666667 42.666667 0 0 1 57.429334 0L981.333333 469.333333h-128v384z m-85.333333-42.666666V390.698667l-256-232.704-256 232.704V810.666667h512z m-256-85.333334l-143.317333-143.317333a96 96 0 0 1 135.765333-135.765333l7.552 7.552 7.552-7.552a96 96 0 0 1 135.765333 135.765333L512 725.333333z" fill="#000000" p-id="12026"></path></svg>