<?xml version="1.0" encoding="UTF-8" standalone="no"?>
<!DOCTYPE svg PUBLIC "-//W3C//DTD SVG 1.1//EN" "http://www.w3.org/Graphics/SVG/1.1/DTD/svg11.dtd">
<svg width="100%" height="100%" viewBox="0 0 400 400" version="1.1" xmlns="http://www.w3.org/2000/svg"
    xmlns:xlink="http://www.w3.org/1999/xlink" xml:space="preserve" xmlns:serif="http://www.serif.com/"
    style="fill-rule:evenodd;clip-rule:evenodd;stroke-linejoin:round;stroke-miterlimit:2;">
    <g transform="matrix(0.39,0,0,0.39,0,0)">
        <path
            d="M691.763344 730.669642c-10.732513 0.415001-15.635019 0.601251-32.305039 0.601251-9.780012 0-19.613774-0.07-29.526286-0.12875l-5.230006-0.0325c-7.256259-0.07-14.565018-0.12875-21.933777-0.15625l0.015-13.101266c0.015-19.862524 0.02875-68.676334-0.03875-87.978857-0.15625-30.628787-11.460014-42.070051-41.718801-42.221302-33.335041-0.1225-66.690081-0.1225-100.005122 0-30.892538 0.1075-41.473801 10.646263-41.962551 41.793801-0.3275 20.961276-0.23 72.386338-0.16125 88.750108l0.035 13.528767c-0.23 0.01-0.455001 0.01625-0.678751 0.01625l-14.233767 0.0625c-25.342531 0.13125-50.693812 0.255-76.060093-0.0925-9.608762-0.12125-16.38127-0.598751-18.202522-2.587503-1.387502-1.518752-1.070001-5.986257-0.616251-12.162515 0.29875-4.047505 0.665001-9.087511 0.708751-15.185019 0.0825-10.965013 0.0775-51.470063 0.06375-62.441326-0.015-20.247525-0.04-41.18005 0.527501-61.912576 0.0725-2.812503 1.972502-6.905008 3.461254-8.29251 33.457541-31.113788 63.481327-61.557575 92.520113-91.001361 27.138783-27.520034 52.772564-53.516315 77.211344-75.835093l4.800006-4.423755c6.698758-6.186258 20.537525-18.993773 24.23378-20.053774 4.052505 1.098751 19.028773 15.420019 25.473781 21.587526l2.905004 2.772503c35.058793 33.355041 67.026332 65.66008 100.873873 99.868872 21.747527 21.981277 44.247554 44.721305 68.935084 69.121334 1.201251 1.185001 2.763753 4.783756 2.802503 7.161259 0.693751 33.530041 0.556251 96.767618 0.24875 128.950157-0.23 22.568778-13.232516 23.042528-17.510021 23.203778L691.763344 730.669642 691.763344 730.669642z"></path>
        <path
            d="M512.016875 0C229.23403 0 0 229.23403 0 512.016875 0 794.77597 229.23403 1024 512.016875 1024c282.764095 0 511.998125-229.22403 511.998125-511.983125C1024.01 229.23403 794.78097 0 512.016875 0zM742.857157 707.583364c-0.3125 30.942538-17.700022 50.815062-45.386305 51.870063l-4.150005 0.1525c-11.283764 0.433751-16.44002 0.633751-33.872541 0.633751-11.342514 0-22.743778-0.07875-34.267542-0.165-12.641265-0.09875-24.68753-0.1725-36.908795-0.1725l-14.482518 0 0.02875-44.100054c0.015-19.116273 0.02875-67.192582-0.04375-85.781355-0.02875-5.972507-0.05875-11.142514-1.152501-12.271265-1.050001-1.083751-6.230008-1.108751-11.728764-1.132501-33.247541-0.1225-66.523831-0.1225-99.780122 0-6.060007 0.025-10.850013 0.04875-11.875014 1.073751-1.055001 1.060001-1.128751 5.986257-1.226251 12.227515-0.3175 20.253775-0.225 70.512586-0.16125 88.178858 0.03 8.723761 0.05875 17.523771 0.05875 26.450032l-0.1025 15.823769-3.613754 0.04875c0 0-22.177527 0.26875-25.830032 0.26875l-20.848775 0.1225c-11.088764 0.04875-22.168777 0.1025-33.237541 0.1025-12.231265 0-24.45378-0.06875-36.680045-0.21375-45.327555-0.597501-47.011307-17.505021-46.703807-59.111322 0.06875-10.532513 0.06875-50.567562 0.05875-61.098825l0-1.128751c-0.02-19.355024-0.04375-41.2988 0.536251-62.720077 0.30375-10.386263 5.401257-21.913777 12.691265-28.705035 33.203791-30.875038 63.153827-61.242575 92.118862-90.606361 27.315033-27.685034 53.115065-53.847566 77.817595-76.396343 2.338753-2.138753 4.726256-4.433755 7.167509-6.772508 12.368765-11.865014 26.392532-25.312531 41.2163-25.312531 14.872518 0 28.857535 13.506266 41.2013 25.425031 2.382503 2.300003 4.721256 4.555006 7.006259 6.665008 29.961287 27.592534 56.772569 55.238817 85.171354 84.511353 26.450032 27.261283 53.788816 55.455068 84.882604 84.707603 6.895008 6.488758 11.650014 17.582521 11.850014 27.607534C743.364657 614.893251 743.105907 681.260832 742.857157 707.583364zM860.664801 556.266929c-5.663757 5.662507-14.575018 5.786257-20.630025 0.737501L533.520651 258.271565c-12.026265-11.742514-31.278788-11.698764-43.168803 0.215L184.257725 556.83193c-6.020007 5.263756-15.107518 5.185006-20.858775-0.551251-5.762507-5.747507-5.850007-14.843768-0.571251-20.873775l306.406624-299.135365c23.901279-23.306278 62.088826-23.257528 85.897605 0.23375l306.230374 299.137865C866.422308 541.680661 866.329808 550.598172 860.664801 556.266929z"></path>
    </g>
</svg>