<svg t="1765377052934" class="icon" viewBox="0 0 1024 1024" version="1.1" xmlns="http://www.w3.org/2000/svg" p-id="14097" width="200" height="200"><path d="M909.994667 309.475556v-34.702223a241.208889 241.208889 0 0 1-45.511111-4.892444 222.321778 222.321778 0 0 1-71.68-29.184 23.324444 23.324444 0 0 0-4.664889-4.380445 192.170667 192.170667 0 0 1-69.518223-76.458666 238.933333 238.933333 0 0 1-22.755555-63.146667h-0.853333a209.635556 209.635556 0 0 1-3.470223-39.822222H534.357333c0 75.719111 0.284444 151.438222-0.341333 227.157333v396.458667a131.413333 131.413333 0 0 1-61.781333 109.624889 130.104889 130.104889 0 0 1-130.844445 4.608 160.824889 160.824889 0 0 1-39.822222-32.597334 124.586667 124.586667 0 0 1-29.980444-67.527111 133.575111 133.575111 0 0 1 13.482666-74.922666 113.777778 113.777778 0 0 1 28.444445-35.328 159.288889 159.288889 0 0 1 66.673777-31.914667 110.705778 110.705778 0 0 1 61.952 1.877333V476.216889c0-15.246222 0.455111-30.549333-0.341333-45.511111-0.512-12.231111 0-24.462222 0-36.693334a287.345778 287.345778 0 0 0-190.236444 39.822223 290.133333 290.133333 0 0 0-95.630223 95.630222 286.890667 286.890667 0 0 0 79.644445 384.398222l2.104889 1.820445a283.192889 283.192889 0 0 0 104.106666 45.056 332.288 332.288 0 0 0 80.611556 6.485333 264.533333 264.533333 0 0 0 148.992-50.517333 297.187556 297.187556 0 0 0 81.009778-91.192889 310.556444 310.556444 0 0 0 42.040889-134.030223c0.967111-12.856889 0.398222-25.713778 0.341333-38.570666a35145.955556 35145.955556 0 0 1-0.967111-289.678222 371.427556 371.427556 0 0 0 216.177778 67.811555V309.475556z" fill="#333333" p-id="14098"></path></svg>