<svg t="1765377591442" class="icon" viewBox="0 0 1024 1024" version="1.1" xmlns="http://www.w3.org/2000/svg" p-id="19347" width="200" height="200"><path d="M849.92 133.94H676.864v25.6H849.92v-25.6z m-205.005 0h-205.21v25.6H644.71v-25.6zM177.152 882.892h467.763v-25.6H177.152v25.6z m672.768-77.005H676.864v25.6H849.92v-25.6z m0 51.405H676.864v25.6H849.92v-25.6zM202.752 159.539v-6.349c-6.349 0-6.349-6.348-6.349-6.348 6.349 0 6.349 0 6.349-6.35-6.349 0-6.349-6.348-6.349-6.348h-19.251v31.744h19.251s6.349 0 6.349-6.349z m-19.251-19.251h12.697c0 6.349-6.348 6.349-6.348 6.349h-6.35v-6.349z m0 19.251v-6.349h12.697v6.35h-12.697z m25.6 12.903h6.349l12.902-31.95h-6.349l-6.349 19.252-6.348-19.251h-6.554l6.349 25.6v6.349z m25.6-25.6v19.046h12.697v-6.349h-6.348v-12.697h6.348v-6.35h-6.348v-6.348l-6.35 6.349h-6.348v6.349h6.349z m38.502 19.046h25.6v-6.349h6.349V140.288h-6.349c0-6.349 0-6.349-6.349-6.349h-19.25v31.949z m6.349-25.6h12.698l6.348 6.349v6.349c0 6.348-6.348 6.348-6.348 6.348h-12.698v-19.046z m96.256 25.6c6.349 0 6.349-6.349 6.349-6.349h-6.349c-6.349 0-6.349-6.349-6.349-6.349s0-6.348 6.349-6.348v6.348h6.349c0-6.348 0-12.902-6.349-12.902-12.902 0-12.902 12.902-12.902 12.902s0 12.698 12.902 12.698z m25.6 0c6.349 0 6.349-6.349 12.902-6.349h-12.697c-6.349 0-6.349 0-6.349-6.349 0 0 0-6.348 6.349-6.348l6.349 6.348h6.348s0-12.902-12.902-12.902-12.902 12.902-12.902 12.902 0 12.698 12.902 12.698z m-141.107 0c6.349 0 6.349-6.349 12.902-6.349h-12.697c-6.35 0-6.35 0-6.35-6.349 0 0 0-6.348 6.35-6.348l6.348 6.348h6.35s0-12.902-12.903-12.902-12.903 12.902-12.903 12.902 0.205 12.698 12.903 12.698z m57.753 0h12.698v-25.6h-12.698c-12.902 0-12.902 12.902-12.902 12.902s0 12.698 12.902 12.698z m0-19.046c6.35 0 6.35 6.348 6.35 6.348s0 6.35-6.35 6.35-6.348-6.35-6.348-6.35 0-6.348 6.348-6.348z m25.6 6.348c0-6.348 6.35-6.348 6.35-6.348v19.046h6.348v-19.251c0-6.349-6.349-6.349-6.349-6.349-6.349 0-6.349 6.349-6.349 6.349l-6.348-6.349v25.6h6.348V153.19zM817.766 37.888H209.101c-89.703 0-166.503 76.8-166.503 166.502v608.052c0 89.702 76.8 166.502 166.503 166.502h608.665c89.703 0 166.503-76.8 166.503-166.502V204.39c0.205-89.702-76.8-166.502-166.503-166.502zM55.296 204.39c0-83.148 70.451-153.6 153.805-153.6h608.665c79.053 0 146.637 63.488 153.19 141.108l-121.036 6.758v-13.312H676.864v22.938l-31.949 1.843v-24.576h-205.21v25.6h187.393l-212.992 11.673V185.14H177.152v50.176l-121.856 6.759V204.39z m480.666 384v-44.85l140.902-6.35v-25.6h64.102v19.252l140.903-6.35v44.852l-140.903 6.349v96.051l-64.102 6.349v-96.051l-140.902 6.348zM849.92 466.74h31.949v44.85h-51.2l-121.651-44.85-128.205 63.897h-44.851v-44.851h31.948l76.8-38.503-44.85-19.251 25.6-44.851 83.353 31.949 102.605-51.2v-6.35l-185.754 6.35-38.502 57.958-57.754-19.251 70.451-108.749 51.2 25.6 160.154-6.349 64.102-6.349v76.8l-108.953 57.55 83.558 25.6z m-205.005 128l-44.851 89.702h-64.102l44.85-83.15 64.103-6.553z m198.451-12.698l51.2 83.148-70.45 6.35-44.852-83.15 64.102-6.348z m-698.368 6.348v-44.85l198.656-12.903V338.534l64.103-6.348v198.45l83.353-6.348v44.851l-121.65 6.349-96.052 128-128.205 6.349v-44.851l76.8-6.35 57.754-76.8-134.759 6.554z m102.605-230.4l57.549 63.898-76.8 6.349-57.754-70.451h77.005z m-44.851-140.902c0-12.902 6.349-19.251 19.251-19.251 12.903 0 19.251 6.349 19.251 19.251 0 6.758-1.843 11.878-5.53 14.95l-25.6 1.434c-4.914-2.867-7.372-8.397-7.372-16.384z m87.45 12.083l8.601-12.083 8.807 11.06-17.408 1.023zM247.603 441.14l57.754 70.451h-76.8l-57.754-63.897 76.8-6.554z m89.293-214.425l19.456-35.021 18.637 32.973-38.093 2.048z m109.363 355.328l57.754 108.748h-76.8l-51.2-102.4 70.246-6.348z m525.312 230.4c0 83.148-70.451 153.6-153.805 153.6H209.101c-79.053 0-146.637-63.488-153.19-141.108l121.241-6.553v13.517h467.763v-25.6H399.77l571.801-31.335v37.479z" fill="#2c2c2c" p-id="19348"></path></svg>