<?xml version="1.0" encoding="UTF-8" standalone="no"?>
<!DOCTYPE svg PUBLIC "-//W3C//DTD SVG 1.1//EN" "http://www.w3.org/Graphics/SVG/1.1/DTD/svg11.dtd">
<svg width="100%" height="100%" viewBox="0 0 400 400" version="1.1" xmlns="http://www.w3.org/2000/svg" xmlns:xlink="http://www.w3.org/1999/xlink" xml:space="preserve" xmlns:serif="http://www.serif.com/" style="fill-rule:evenodd;clip-rule:evenodd;stroke-linejoin:round;stroke-miterlimit:2;">
    <g transform="matrix(0.39,0,0,0.39,0,0)">
        <path
            d="M512 1024C229.2224 1024 0 794.7776 0 512S229.2224 0 512 0s512 229.2224 512 512-229.2224 512-512 512z m117.504-607.3856c7.5264 0 14.9504 0.6144 22.528 1.28C631.9616 324.9152 531.2512 256 416.4608 256 288.0512 256 182.8352 342.3232 182.8352 452.1472c0 63.3856 34.9184 115.456 93.3888 155.8528l-23.3472 69.4272 81.7152-40.6016c29.184 5.632 52.736 11.4688 81.7152 11.4688 7.2192 0 14.5408-0.2048 21.76-1.024a164.7104 164.7104 0 0 1-7.168-48.1792c0-100.7104 87.552-182.4768 198.656-182.4768zM503.808 354.048c17.5616 0 29.184 11.4688 29.184 28.7744 0 17.3568-11.6224 28.8256-29.184 28.8256-17.664 0-35.1744-11.4688-35.1744-28.8256 0.3072-17.2032 17.8176-28.7744 35.1744-28.7744zM340.2752 411.7504c-17.6128 0-35.1744-11.4688-35.1744-28.8256 0-17.3056 17.5616-28.7744 35.1744-28.7744 17.5616 0 29.184 11.4688 29.184 28.7744 0 17.152-11.52 28.8256-29.184 28.8256z m502.3232 184.6784c0-92.16-93.3376-167.2704-198.3488-167.2704-111.2064 0-198.656 75.1616-198.656 167.2704 0 92.4672 87.4496 167.3216 198.656 167.3216 23.2448 0 46.848-5.8368 70.0928-11.4688l64.2048 34.7136-17.5616-57.7024c46.6944-34.7648 81.6128-80.9984 81.6128-132.864z m-262.7072-28.8256c-11.6736 0-23.296-11.4688-23.296-22.9888 0-11.4688 11.6224-22.9376 23.296-22.9376 17.6128 0 29.184 11.4688 29.184 22.9376 0 11.52-11.6736 22.9888-29.184 22.9888z m128.512 0c-11.6224 0-23.2448-11.4688-23.2448-22.9888 0-11.4688 11.6224-22.9376 23.296-22.9376 17.5104 0 29.184 11.4688 29.184 22.9376 0 11.52-11.9296 22.9888-29.184 22.9888z"></path>
    </g>
</svg>